<?xml version="1.0" encoding="UTF-8" standalone="no"?>
<!-- Created with Inkscape (http://www.inkscape.org/) -->

<svg
   xmlns:dc="http://purl.org/dc/elements/1.1/"
   xmlns:cc="http://creativecommons.org/ns#"
   xmlns:rdf="http://www.w3.org/1999/02/22-rdf-syntax-ns#"
   xmlns:svg="http://www.w3.org/2000/svg"
   xmlns="http://www.w3.org/2000/svg"
   xmlns:sodipodi="http://sodipodi.sourceforge.net/DTD/sodipodi-0.dtd"
   xmlns:inkscape="http://www.inkscape.org/namespaces/inkscape"
   width="210mm"
   height="210mm"
   viewBox="0 0 210 210"
   version="1.1"
   id="svg8"
   inkscape:version="0.92.1 r15371"
   sodipodi:docname="アイコン.svg"
   inkscape:export-filename="E:\ドキュメント\projectFile\inspireMovement\InspireMovement\InspireMovement\icon.png"
   inkscape:export-xdpi="244.3"
   inkscape:export-ydpi="244.3">
  <defs
     id="defs2" />
  <sodipodi:namedview
     id="base"
     pagecolor="#ffffff"
     bordercolor="#666666"
     borderopacity="1.0"
     inkscape:pageopacity="0.0"
     inkscape:pageshadow="2"
     inkscape:zoom="0.7"
     inkscape:cx="-50.382915"
     inkscape:cy="299.80644"
     inkscape:document-units="mm"
     inkscape:current-layer="layer1"
     showgrid="false"
     inkscape:window-width="1920"
     inkscape:window-height="986"
     inkscape:window-x="-11"
     inkscape:window-y="-11"
     inkscape:window-maximized="1" />
  <metadata
     id="metadata5">
    <rdf:RDF>
      <cc:Work
         rdf:about="">
        <dc:format>image/svg+xml</dc:format>
        <dc:type
           rdf:resource="http://purl.org/dc/dcmitype/StillImage" />
        <dc:title></dc:title>
      </cc:Work>
    </rdf:RDF>
  </metadata>
  <g
     inkscape:label="レイヤー 1"
     inkscape:groupmode="layer"
     id="layer1"
     transform="translate(0,-87)">
    <path
       style="opacity:1;fill:#b4b4b4;fill-opacity:1;stroke:#b4b4b4;stroke-width:0.26499999;stroke-linecap:round;stroke-linejoin:miter;stroke-miterlimit:4;stroke-dasharray:none;stroke-dashoffset:0;stroke-opacity:1"
       id="path4577"
       d="m 133.88369,263.70926 c -2.54889,0.46466 -5.09641,0.92914 -7.61824,1.53136 -2.0677,0.59779 -4.19876,0.96978 -6.27344,1.53531 -0.89549,0.2441 -1.77184,0.55386 -2.66168,0.81784 -8.69686,2.57998 2.48563,-0.81544 -6.58282,1.95422 -1.21316,0.32792 -2.4236,0.66606 -3.63948,0.98376 -2.27224,0.59373 -5.15953,1.32612 -7.472266,1.76073 -4.325636,0.81288 -8.687213,1.2168 -13.066911,1.5881 -7.713959,0.52795 -15.446997,0.73568 -23.176918,0.85509 -3.143292,-0.0363 -6.296191,0.18713 -9.437232,0.0213 -0.765392,-0.0793 -1.543767,-0.0688 -2.297493,-0.2441 -0.540023,-0.12562 -1.066962,-0.33997 -1.603288,-0.48501 -1.11647,-0.13596 -1.892154,-0.41956 -2.875433,-0.93371 -0.622748,-0.27695 -1.133039,-0.7462 -1.749391,-1.03258 -0.336521,-0.15636 -0.689412,-0.27479 -1.032476,-0.41622 -1.223912,-0.3158 -2.035048,-0.91061 -2.734243,-1.94958 -0.622173,-1.0962 -0.662419,-2.33943 -0.533668,-3.56121 0.243563,-1.67997 0.77242,-3.30232 1.249606,-4.92687 0.34951,-1.47256 0.94588,-2.85852 1.65036,-4.19215 0.364249,-0.66293 0.827797,-1.28744 1.49202,-1.67664 4.956987,-2.90456 3.465986,-2.17843 5.81057,-3.29093 0.202184,-0.0841 0.398552,-0.18386 0.606554,-0.25233 0.831514,-0.27373 1.725036,-0.34731 2.575309,-0.54583 0.587187,-0.1371 1.969085,-0.50795 2.520286,-0.65388 2.181815,-0.89842 4.416099,-1.61712 6.684285,-2.2556 0.808522,-0.39832 1.770158,-0.43555 2.57265,-0.83941 0.156247,-0.0786 0.590595,-0.37448 0.437893,-0.28916 -1.452938,0.81177 -2.893155,1.6461 -4.339733,2.46916 0.837793,-0.60823 1.524442,-1.38728 2.180648,-2.18053 0.649179,-0.81127 1.187143,-1.65956 1.493438,-2.6544 0.271833,-0.86102 0.0089,-1.65366 -0.341209,-2.44561 -0.495049,-0.94457 -1.328396,-1.57189 -2.146017,-2.21716 -1.028996,-0.58276 -1.895359,-1.37839 -2.697694,-2.23607 -0.850868,-0.81783 -1.447795,-1.834 -2.128454,-2.7866 -0.654063,-0.68171 -1.238041,-1.43098 -1.91638,-2.08887 -0.865574,-0.92693 -1.702234,-1.87509 -2.700004,-2.66245 -0.994629,-0.74682 -2.07817,-1.36972 -3.215701,-1.87367 -1.232106,-0.52454 -2.375643,-1.26963 -3.394681,-2.1358 -0.864279,-0.6869 -1.272899,-1.57409 -1.545616,-2.60968 -0.258403,-1.23487 -0.873125,-2.27787 -1.639321,-3.25841 -0.623168,-0.894 -1.497804,-1.47089 -2.376927,-2.07403 -0.885515,-0.52073 -1.661057,-1.18838 -2.444911,-1.84542 -0.857044,-0.47462 -1.648844,-1.02039 -2.352744,-1.70142 -0.619816,-0.75292 -1.226301,-1.5195 -1.752058,-2.3416 -0.630523,-0.91729 -1.061333,-1.89796 -1.408133,-2.9492 -0.128786,-0.45972 -0.38263,-0.84495 -0.650396,-1.2312 0,0 4.814122,-2.82754 4.814122,-2.82754 v 0 c 0.290219,0.43234 0.565965,0.8674 0.716987,1.3724 0.33292,1.00618 0.71755,1.95591 1.340874,2.82639 0.503957,0.78303 1.100238,1.50371 1.691142,2.22215 0.708036,0.66181 1.528199,1.14334 2.336697,1.67096 0.769707,0.64903 1.534787,1.29895 2.413423,1.80126 0.921147,0.63411 1.781525,1.31711 2.440081,2.23831 0.796512,1.04186 1.46142,2.14517 1.770792,3.43598 0.2672,0.96629 0.536612,1.6768 1.360705,2.32737 0.9922,0.8338 2.109234,1.51636 3.307487,2.01364 1.157978,0.55409 2.283174,1.18977 3.292229,1.98787 0.992457,0.81935 1.833412,1.79115 2.747454,2.69449 0.696876,0.68439 1.315353,1.44677 1.959124,2.17998 0.660765,0.93503 1.247417,1.92619 2.081178,2.72472 0.796136,0.83447 1.677588,1.55993 2.662705,2.165 0.879084,0.70531 1.762358,1.41461 2.291173,2.43704 0.408959,0.87945 0.762267,1.80912 0.521756,2.78862 -0.262787,1.06844 -0.713246,1.99405 -1.415434,2.84926 -0.593955,0.86686 -1.33944,1.6258 -2.112555,2.33659 -1.88047,1.11449 -3.623548,2.53196 -5.675691,3.28493 -0.830815,0.30484 -1.710205,0.47986 -2.543664,0.77796 -2.244714,0.61719 -4.424947,1.40333 -6.61375,2.19371 -0.898813,0.24051 -1.686369,0.45858 -2.588165,0.67272 -1.070625,0.25423 -2.177565,0.40955 -3.153476,0.95445 -2.151388,1.14999 0.180467,-0.0883 3.72922,-2.18151 0.141507,-0.0835 -0.302606,0.13008 -0.444648,0.21263 -0.505121,0.29358 -0.904944,0.68994 -1.188426,1.20245 -0.753258,1.28786 -1.380427,2.65048 -1.74307,4.1022 -0.47988,1.59032 -0.978937,3.18628 -1.251281,4.82751 -0.163187,1.08651 -0.161734,2.20064 0.37002,3.19532 0.64711,0.9577 1.46508,1.34713 2.55274,1.67888 0.99165,0.41211 1.896435,0.94787 2.829182,1.47502 0.888714,0.45719 1.820751,0.65405 2.796759,0.84966 1.236001,0.36243 2.458474,0.67771 3.762788,0.67497 3.0486,0.15191 6.105866,0.0859 9.156813,0.14276 7.626668,0.004 15.259844,-0.0773 22.867147,-0.67819 3.797855,-0.35679 5.251299,-0.43653 8.975923,-1.00318 5.184568,-0.78874 10.272768,-2.06323 15.302418,-3.533 7.14261,-2.19494 -0.26854,0.0759 6.68865,-2.03621 0.91533,-0.27788 1.82244,-0.58368 2.74403,-0.84005 2.10564,-0.58577 4.25936,-1.00483 6.36275,-1.60173 1.6406,-0.3843 3.28453,-0.73938 4.93664,-1.07088 0.65013,-0.13045 1.50699,-0.27601 2.15841,-0.45015 0.23315,-0.0623 0.45874,-0.15012 0.6881,-0.22517 0,0 -4.40802,3.45081 -4.40802,3.45081 z"
       inkscape:connector-curvature="0" />
    <rect
       style="opacity:1;fill:#646464;fill-opacity:1;stroke:#646464;stroke-width:0.26499999;stroke-linecap:round;stroke-linejoin:miter;stroke-miterlimit:4;stroke-dasharray:none;stroke-dashoffset:0;stroke-opacity:1"
       id="rect4485"
       width="108.85715"
       height="89.202377"
       x="7.9374981"
       y="122.75301" />
    <rect
       style="opacity:1;fill:#ffffff;fill-opacity:1;stroke:#050000;stroke-width:0.26499999;stroke-linecap:round;stroke-linejoin:miter;stroke-miterlimit:4;stroke-dasharray:none;stroke-dashoffset:0;stroke-opacity:1"
       id="rect4485-7"
       width="108.85715"
       height="89.202377"
       x="20.410704"
       y="111.41372" />
    <text
       xml:space="preserve"
       style="font-style:normal;font-weight:normal;font-size:22.57777778px;line-height:1.25;font-family:sans-serif;letter-spacing:0px;word-spacing:0px;fill:#000000;fill-opacity:1;stroke:none;stroke-width:0.26458332;"
       x="43.089287"
       y="150.34525"
       id="text4506"><tspan
         sodipodi:role="line"
         id="tspan4504"
         x="43.089287"
         y="152.27635"
         style="stroke-width:0.26458332;font-size:22.57777778px;" /></text>
    <rect
       style="opacity:1;fill:#000000;fill-opacity:1;stroke:#3f0000;stroke-width:0.26499999;stroke-linecap:round;stroke-linejoin:miter;stroke-miterlimit:4;stroke-dasharray:none;stroke-dashoffset:0;stroke-opacity:1"
       id="rect4485-7-3"
       width="82.776787"
       height="67.819542"
       x="34.01786"
       y="122.75301" />
    <ellipse
       style="opacity:1;fill:#0000ff;fill-opacity:1;stroke:#3f0000;stroke-width:0.26499999;stroke-linecap:round;stroke-linejoin:miter;stroke-miterlimit:4;stroke-dasharray:none;stroke-dashoffset:0;stroke-opacity:1"
       id="path4537"
       cx="132.66965"
       cy="279.04614"
       rx="16.252975"
       ry="9.6383924" />
    <ellipse
       style="opacity:1;fill:#0000f1;fill-opacity:1;stroke:#3f0000;stroke-width:0.26499999;stroke-linecap:round;stroke-linejoin:miter;stroke-miterlimit:4;stroke-dasharray:none;stroke-dashoffset:0;stroke-opacity:1"
       id="path4537-0"
       cx="181.0506"
       cy="279.61307"
       rx="16.252975"
       ry="9.6383924" />
    <ellipse
       style="opacity:1;fill:#ff0000;fill-opacity:1;stroke:#3f0000;stroke-width:0.27746838;stroke-linecap:round;stroke-linejoin:miter;stroke-miterlimit:4;stroke-dasharray:none;stroke-dashoffset:0;stroke-opacity:1"
       id="path4537-05"
       cx="277.71237"
       cy="228.74084"
       rx="17.477907"
       ry="7.4603772"
       transform="matrix(0.96464224,0.2635628,-0.63577976,0.77187052,0,0)" />
    <ellipse
       style="opacity:1;fill:#ff0000;fill-opacity:1;stroke:#3f0000;stroke-width:0.27746838;stroke-linecap:round;stroke-linejoin:miter;stroke-miterlimit:4;stroke-dasharray:none;stroke-dashoffset:0;stroke-opacity:1"
       id="path4537-05-0"
       cx="11.184393"
       cy="317.79071"
       rx="17.477907"
       ry="7.4603772"
       transform="matrix(-0.96464224,0.2635628,0.63577976,0.77187052,0,0)" />
    <text
       xml:space="preserve"
       style="font-style:normal;font-weight:normal;font-size:25.39999962px;line-height:1.25;font-family:sans-serif;letter-spacing:0px;word-spacing:0px;fill:#000000;fill-opacity:1;stroke:none;stroke-width:0.26458332"
       x="47.247021"
       y="144.6756"
       id="text4581"><tspan
         sodipodi:role="line"
         id="tspan4579"
         x="47.247021"
         y="144.6756"
         style="font-size:16.93333244px;fill:#ffffff;fill-opacity:1;stroke-width:0.26458332">01010</tspan><tspan
         sodipodi:role="line"
         x="47.247021"
         y="176.4256"
         style="font-size:16.93333244px;fill:#ffffff;fill-opacity:1;stroke-width:0.26458332"
         id="tspan4589">00100</tspan></text>
    <path
       style="opacity:1;fill:#ffa600;fill-opacity:1;stroke:#ffa600;stroke-width:0.26499999;stroke-linecap:round;stroke-linejoin:miter;stroke-miterlimit:4;stroke-dasharray:none;stroke-dashoffset:0;stroke-opacity:1"
       d="m 132.97214,198.0627 c 0,-0.0607 10.23128,-7.94282 22.73616,-17.51582 12.50491,-9.57301 22.73618,-17.49398 22.73618,-17.60217 0,-0.10821 -5.94005,-0.19861 -13.20013,-0.20097 l -13.20013,-0.005 4.4157,-3.00705 c 15.89262,-10.82274 25.9052,-17.8333 31.71947,-22.20915 1.27201,-0.95734 2.35309,-1.68713 2.40239,-1.62176 0.0493,0.0654 -3.30296,5.03932 -7.44946,11.0532 l -7.53909,10.93432 15.62993,0.12459 15.62995,0.1246 -36.76742,19.93436 c -41.16682,22.3196 -37.11355,20.13643 -37.11355,19.99012 z"
       id="path4607"
       inkscape:connector-curvature="0" />
    <path
       style="opacity:1;fill:#000000;fill-opacity:1;stroke:#000000;stroke-width:1.00157475;stroke-linecap:round;stroke-linejoin:miter;stroke-miterlimit:4;stroke-dasharray:none;stroke-dashoffset:0;stroke-opacity:1"
       d=""
       id="path4611"
       inkscape:connector-curvature="0"
       transform="matrix(0.26458333,0,0,0.26458333,0,87)" />
    <path
       style="opacity:1;fill:#000000;fill-opacity:1;stroke:#000000;stroke-width:1.00157475;stroke-linecap:round;stroke-linejoin:miter;stroke-miterlimit:4;stroke-dasharray:none;stroke-dashoffset:0;stroke-opacity:1"
       d=""
       id="path4613"
       inkscape:connector-curvature="0"
       transform="matrix(0.26458333,0,0,0.26458333,0,87)" />
    <ellipse
       style="opacity:1;fill:#ffffff;fill-opacity:1;stroke:#000000;stroke-width:0.26499999;stroke-linecap:round;stroke-linejoin:miter;stroke-miterlimit:4;stroke-dasharray:none;stroke-dashoffset:0;stroke-opacity:1"
       id="path4533"
       cx="156.10416"
       cy="254.47769"
       rx="21.544643"
       ry="27.025297" />
    <ellipse
       style="opacity:1;fill:#ffffff;fill-opacity:1;stroke:#3f0000;stroke-width:0.26499999;stroke-linecap:round;stroke-linejoin:miter;stroke-miterlimit:4;stroke-dasharray:none;stroke-dashoffset:0;stroke-opacity:1"
       id="path4529"
       cx="156.86012"
       cy="218.19196"
       rx="39.309525"
       ry="18.709822" />
    <path
       style="fill:none;stroke:#000000;stroke-width:0.26458332px;stroke-linecap:butt;stroke-linejoin:miter;stroke-opacity:1"
       d="m 130.82169,213.07308 c 27.49776,12.18973 49.89285,-0.56696 49.89285,-0.56696"
       id="path4617"
       inkscape:connector-curvature="0" />
    <path
       style="fill:none;stroke:#000000;stroke-width:0.26458332px;stroke-linecap:butt;stroke-linejoin:miter;stroke-opacity:1"
       d="m 130.82169,223.18394 c 27.49776,12.18973 49.89285,-0.56696 49.89285,-0.56696"
       id="path4617-8"
       inkscape:connector-curvature="0" />
    <path
       style="fill:none;stroke:#000000;stroke-width:0.26458332px;stroke-linecap:butt;stroke-linejoin:miter;stroke-opacity:1"
       d="M 130.82169,223.18394 V 213.07308"
       id="path4634"
       inkscape:connector-curvature="0" />
    <path
       style="fill:none;stroke:#000000;stroke-width:0.26458332px;stroke-linecap:butt;stroke-linejoin:miter;stroke-opacity:1"
       d="M 180.71454,222.61698 V 212.50612"
       id="path4636"
       inkscape:connector-curvature="0" />
    <path
       style="opacity:1;fill:#00ccff;fill-opacity:1;stroke:#000000;stroke-width:1.00157475;stroke-linecap:round;stroke-linejoin:miter;stroke-miterlimit:4;stroke-dasharray:none;stroke-dashoffset:0;stroke-opacity:1"
       d="m 569.68867,533.29728 c -23.40334,-2.03956 -46.3301,-7.54591 -67.68022,-16.25486 l -6.566,-2.67835 -0.13263,-18.3632 c -0.10572,-14.63752 -0.003,-18.30672 0.50508,-18.08479 22.00409,9.60684 46.78478,15.9764 71.20423,18.30212 12.13777,1.15602 35.51564,0.78647 47.36879,-0.74879 23.37435,-3.0275 48.90985,-10.28167 65.2811,-18.54515 l 2.39912,-1.21097 v 18.39133 18.39133 l -7.44988,3.27956 c -19.53638,8.60024 -39.74525,13.96811 -63.2608,16.80331 -7.92804,0.95587 -33.82163,1.40232 -41.66879,0.71846 z"
       id="path4638"
       inkscape:connector-curvature="0"
       transform="matrix(0.26458333,0,0,0.26458333,0,87)" />
  </g>
</svg>
